<?xml version="1.0" standalone="no"?><svg xmlns="http://www.w3.org/2000/svg" viewBox="0 0 1440 320"><path fill="#5f19dd" fill-opacity="1" d="M0,64L18.5,101.3C36.9,139,74,213,111,213.3C147.7,213,185,139,222,117.3C258.5,96,295,128,332,165.3C369.2,203,406,245,443,234.7C480,224,517,160,554,138.7C590.8,117,628,139,665,144C701.5,149,738,139,775,165.3C812.3,192,849,256,886,234.7C923.1,213,960,107,997,69.3C1033.8,32,1071,64,1108,80C1144.6,96,1182,96,1218,96C1255.4,96,1292,96,1329,112C1366.2,128,1403,160,1422,176L1440,192L1440,0L1421.5,0C1403.1,0,1366,0,1329,0C1292.3,0,1255,0,1218,0C1181.5,0,1145,0,1108,0C1070.8,0,1034,0,997,0C960,0,923,0,886,0C849.2,0,812,0,775,0C738.5,0,702,0,665,0C627.7,0,591,0,554,0C516.9,0,480,0,443,0C406.2,0,369,0,332,0C295.4,0,258,0,222,0C184.6,0,148,0,111,0C73.8,0,37,0,18,0L0,0Z"></path></svg>